<svg id="Group_11502" data-name="Group 11502" xmlns="http://www.w3.org/2000/svg" xmlns:xlink="http://www.w3.org/1999/xlink" width="252" height="72" viewBox="0 0 252 72">
  <defs>
    <clipPath id="clip-path">
      <rect id="Rectangle_2" data-name="Rectangle 2" width="252" height="72" fill="#fff"/>
    </clipPath>
  </defs>
  <g id="Group_1" data-name="Group 1" clip-path="url(#clip-path)">
    <path id="Path_1" data-name="Path 1" d="M3.992,63.884c-.3,8.32,4.383,12.466,9.181,18.255,7.97,11.18,5.254,15.372-2.044,23.157.228-6.376-.874-12.685-6.9-18.749C-1.968,78.819-.75,71.3,3.992,63.884" transform="translate(0 -52.033)" fill="#fff" fill-rule="evenodd"/>
    <path id="Path_2" data-name="Path 2" d="M34.895,0c-.271,8.217,2.918,14.193,8.66,18.515,11.692,8.831,7.211,17.662,1.582,25.759,2.278-6.726-4.8-15.021-10.007-21.611C28.935,14.935,30.153,7.417,34.895,0" transform="translate(-25.154)" fill="#fff" fill-rule="evenodd"/>
    <path id="Path_3" data-name="Path 3" d="M34.2,223.837l-1.157-.061c.323-6.048-.758-10.767-3.305-14.424l.952-.659c2.7,3.876,3.848,8.83,3.511,15.145" transform="translate(-24.206 -169.979)" fill="#fff"/>
    <path id="Path_4" data-name="Path 4" d="M64.571,15.963A22.159,22.159,0,0,1,59.508,1.371l.965.029a21.211,21.211,0,0,0,4.853,13.963Z" transform="translate(-48.43 -1.117)" fill="#fff"/>
    <path id="Path_5" data-name="Path 5" d="M189.115,79.192V89.355h-4.634V78.826A8.828,8.828,0,0,0,184,76.571a2.4,2.4,0,0,0-2.357-1.207,3.249,3.249,0,0,0-2.731,1.2,5.475,5.475,0,0,0-.932,3.422v9.369h-4.523V66.027h4.523V74.3a5.56,5.56,0,0,1,2.285-2.1A6.477,6.477,0,0,1,183,71.6a7.429,7.429,0,0,1,2.922.556,5.109,5.109,0,0,1,2.158,1.7,4.509,4.509,0,0,1,.876,1.993,24.512,24.512,0,0,1,.159,3.343" transform="translate(-138.724 -49.653)" fill="#fff"/>
    <path id="Path_6" data-name="Path 6" d="M262.456,101.128a5.737,5.737,0,0,1-1.609,3.128,7.891,7.891,0,0,1-6.242,2.525,8.817,8.817,0,0,1-5.844-2.128q-2.532-2.128-2.532-6.924,0-4.494,2.285-6.892a7.824,7.824,0,0,1,5.932-2.4,9.117,9.117,0,0,1,3.9.81,6.832,6.832,0,0,1,2.866,2.557,8.712,8.712,0,0,1,1.322,3.573,23.028,23.028,0,0,1,.144,3.43H250.8a4.3,4.3,0,0,0,1.64,3.652,3.87,3.87,0,0,0,2.261.651,3.26,3.26,0,0,0,2.277-.794,3.776,3.776,0,0,0,.844-1.191Zm-4.491-5.3a3.934,3.934,0,0,0-1.091-2.723,3.393,3.393,0,0,0-2.429-.929,3.087,3.087,0,0,0-2.444.985,4.906,4.906,0,0,0-1.091,2.668Z" transform="translate(-193.396 -66.508)" fill="#fff"/>
    <path id="Path_7" data-name="Path 7" d="M331.547,93.221q-2.739,0-3.679,1.779a6.9,6.9,0,0,0-.525,3.081v8.274h-4.57V89.045H327.1v3.017a9.574,9.574,0,0,1,1.831-2.366,4.994,4.994,0,0,1,3.312-1.064c.085,0,.156,0,.215.008s.188.013.39.024V93.3q-.43-.048-.764-.063c-.223-.01-.4-.016-.541-.016" transform="translate(-250.904 -66.652)" fill="#fff"/>
    <path id="Path_8" data-name="Path 8" d="M386.634,89.355h-5.478L377,81.955l-1.879,1.953v5.447h-4.459V66.027h4.459V78.636l5.653-6.511h5.621l-6.067,6.622Z" transform="translate(-286.884 -49.653)" fill="#fff"/>
    <path id="Path_9" data-name="Path 9" d="M450.312,101.128a5.737,5.737,0,0,1-1.608,3.128,7.891,7.891,0,0,1-6.242,2.525,8.817,8.817,0,0,1-5.844-2.128q-2.532-2.128-2.532-6.924,0-4.494,2.285-6.892a7.824,7.824,0,0,1,5.932-2.4,9.116,9.116,0,0,1,3.9.81,6.832,6.832,0,0,1,2.866,2.557,8.713,8.713,0,0,1,1.322,3.573,23.032,23.032,0,0,1,.144,3.43h-11.88a4.3,4.3,0,0,0,1.64,3.652,3.87,3.87,0,0,0,2.261.651,3.26,3.26,0,0,0,2.277-.794,3.778,3.778,0,0,0,.844-1.191Zm-4.491-5.3A3.935,3.935,0,0,0,444.73,93.1a3.393,3.393,0,0,0-2.429-.929,3.087,3.087,0,0,0-2.444.985,4.906,4.906,0,0,0-1.091,2.668Z" transform="translate(-334.535 -66.508)" fill="#fff"/>
    <path id="Path_10" data-name="Path 10" d="M519.164,89.6a5.573,5.573,0,0,1,2.341,4.478h-4.539a2.675,2.675,0,0,0-.493-1.382,3.111,3.111,0,0,0-2.548-.921,3.67,3.67,0,0,0-2.11.461,1.325,1.325,0,0,0-.629,1.08,1.181,1.181,0,0,0,.669,1.127,28.966,28.966,0,0,0,4.73,1.255,8.7,8.7,0,0,1,4.061,1.921,4.357,4.357,0,0,1,1.338,3.255,5.253,5.253,0,0,1-1.919,4.2q-1.919,1.628-5.932,1.628-4.093,0-6.044-1.723a5.6,5.6,0,0,1-1.951-4.391h4.6a3.015,3.015,0,0,0,.621,1.715,4.2,4.2,0,0,0,3.121.905,4.766,4.766,0,0,0,2.126-.4,1.33,1.33,0,0,0,.151-2.35,26,26,0,0,0-4.729-1.365,9.861,9.861,0,0,1-4.156-1.826,3.953,3.953,0,0,1-1.21-3.112,5.392,5.392,0,0,1,1.887-4.121,7.593,7.593,0,0,1,5.311-1.723,9.853,9.853,0,0,1,5.3,1.286" transform="translate(-388.669 -66.411)" fill="#fff"/>
    <path id="Path_11" data-name="Path 11" d="M592.959,65.836V89.211h-4.411v-2.4a6.394,6.394,0,0,1-2.214,2.239,6.229,6.229,0,0,1-3.089.7,6.457,6.457,0,0,1-5.119-2.454,9.4,9.4,0,0,1-2.078-6.3,10.815,10.815,0,0,1,2.046-6.971,6.665,6.665,0,0,1,5.47-2.541,5.614,5.614,0,0,1,2.8.691,5.509,5.509,0,0,1,1.99,1.914V65.836Zm-12.23,14.832a6.791,6.791,0,0,0,.955,3.827,3.183,3.183,0,0,0,2.866,1.445,3.355,3.355,0,0,0,2.93-1.429,6.3,6.3,0,0,0,1-3.7q0-3.176-1.608-4.542a3.47,3.47,0,0,0-2.293-.826,3.19,3.19,0,0,0-2.922,1.5,6.935,6.935,0,0,0-.932,3.724" transform="translate(-441.193 -49.509)" fill="#fff"/>
    <path id="Path_12" data-name="Path 12" d="M668.892,105.161q-.064.08-.318.476a3.187,3.187,0,0,1-.605.7,6.321,6.321,0,0,1-2.062,1.3,7.048,7.048,0,0,1-2.333.349q-3.854,0-5.192-2.763a10.551,10.551,0,0,1-.748-4.494V90.3h4.65V100.73a5.445,5.445,0,0,0,.35,2.223,2.426,2.426,0,0,0,2.436,1.318,3.186,3.186,0,0,0,3.185-1.874,6.773,6.773,0,0,0,.446-2.684V90.3h4.6v17.309h-4.411Z" transform="translate(-502.49 -67.904)" fill="#fff"/>
    <path id="Path_13" data-name="Path 13" d="M736.9,103.064,740.484,90.3h4.825l-5.956,17.023q-1.72,4.922-2.723,6.106t-4.013,1.183q-.605,0-.972-.008t-1.1-.056v-3.621l.573.032a7.215,7.215,0,0,0,1.274-.048,2.294,2.294,0,0,0,1.019-.365,2.446,2.446,0,0,0,.741-1.128,2.387,2.387,0,0,0,.279-1.048L728.063,90.3h5.048Z" transform="translate(-555.405 -67.904)" fill="#fff"/>
    <path id="Path_14" data-name="Path 14" d="M811.922,89.6a5.573,5.573,0,0,1,2.341,4.478h-4.538a2.676,2.676,0,0,0-.493-1.382,3.112,3.112,0,0,0-2.548-.921,3.67,3.67,0,0,0-2.11.461,1.325,1.325,0,0,0-.629,1.08,1.181,1.181,0,0,0,.669,1.127,28.973,28.973,0,0,0,4.73,1.255,8.7,8.7,0,0,1,4.06,1.921,4.357,4.357,0,0,1,1.338,3.255,5.254,5.254,0,0,1-1.919,4.2Q810.9,106.7,806.89,106.7q-4.093,0-6.043-1.723a5.6,5.6,0,0,1-1.951-4.391h4.6a3.017,3.017,0,0,0,.621,1.715,4.205,4.205,0,0,0,3.121.905,4.763,4.763,0,0,0,2.126-.4,1.271,1.271,0,0,0,.789-1.191,1.284,1.284,0,0,0-.637-1.159,26,26,0,0,0-4.729-1.365,9.861,9.861,0,0,1-4.156-1.826,3.953,3.953,0,0,1-1.21-3.112,5.392,5.392,0,0,1,1.887-4.121,7.592,7.592,0,0,1,5.311-1.723,9.854,9.854,0,0,1,5.3,1.286" transform="translate(-608.623 -66.411)" fill="#fff"/>
    <path id="Path_15" data-name="Path 15" d="M883.853,105.161q-.064.08-.319.476a3.185,3.185,0,0,1-.605.7,6.322,6.322,0,0,1-2.062,1.3,7.048,7.048,0,0,1-2.333.349q-3.854,0-5.192-2.763a10.55,10.55,0,0,1-.748-4.494V90.3h4.65V100.73a5.441,5.441,0,0,0,.351,2.223,2.425,2.425,0,0,0,2.436,1.318,3.186,3.186,0,0,0,3.185-1.874,6.773,6.773,0,0,0,.446-2.684V90.3h4.6v17.309h-4.411Z" transform="translate(-663.993 -67.904)" fill="#fff"/>
    <path id="Path_16" data-name="Path 16" d="M958.331,92.4a3.161,3.161,0,0,0-3.169,1.953,6.7,6.7,0,0,0-.446,2.636v9.369h-4.522V89.077h4.379V91.6a7.685,7.685,0,0,1,1.656-1.921,5.767,5.767,0,0,1,3.551-1.048,6.713,6.713,0,0,1,4.4,1.405q1.712,1.4,1.712,4.661v11.656h-4.65V95.825a4.793,4.793,0,0,0-.366-2.1,2.578,2.578,0,0,0-2.548-1.334" transform="translate(-722.295 -66.652)" fill="#fff"/>
    <rect id="Rectangle_1" data-name="Rectangle 1" width="2.404" height="2.358" transform="translate(208.606 53.015)" fill="#fff"/>
    <path id="Path_17" data-name="Path 17" d="M895.353,190.984h-2.317a2,2,0,0,0-.325-.87,1.365,1.365,0,0,0-1.182-.522,1.556,1.556,0,0,0-1.563,1.131,4.724,4.724,0,0,0-.222,1.6,4.342,4.342,0,0,0,.222,1.527,1.508,1.508,0,0,0,1.523,1.076,1.345,1.345,0,0,0,1.127-.427,2.119,2.119,0,0,0,.4-1.107h2.309a3.767,3.767,0,0,1-.746,1.946,3.629,3.629,0,0,1-3.149,1.479,3.69,3.69,0,0,1-3.07-1.234,4.985,4.985,0,0,1-.984-3.2,5.057,5.057,0,0,1,1.087-3.457,3.787,3.787,0,0,1,3-1.234,4.524,4.524,0,0,1,2.661.728,3.381,3.381,0,0,1,1.226,2.571" transform="translate(-675.102 -141.141)" fill="#fff"/>
    <path id="Path_18" data-name="Path 18" d="M930.188,188.766a5.346,5.346,0,0,1,0,6.483,4.77,4.77,0,0,1-6.648,0,5.346,5.346,0,0,1,0-6.483,4.721,4.721,0,0,1,6.648,0m-3.332.538a1.808,1.808,0,0,0-1.527.7,4,4,0,0,0,0,4,2,2,0,0,0,3.05,0,4.028,4.028,0,0,0,0-4,1.8,1.8,0,0,0-1.523-.7" transform="translate(-701.447 -140.924)" fill="#fff"/>
    <path id="Path_19" data-name="Path 19" d="M968.051,190.312a1.108,1.108,0,0,0-1.119-.625,1.336,1.336,0,0,0-1.3.625,2.4,2.4,0,0,0-.182,1.06v5.19h-2.293v-8.608h2.2v1.258a3.624,3.624,0,0,1,.793-.957,3.147,3.147,0,0,1,3.308-.071,2.537,2.537,0,0,1,.746,1.037,2.869,2.869,0,0,1,1.1-1.116,3.372,3.372,0,0,1,1.555-.356,3.02,3.02,0,0,1,1.127.221,2.514,2.514,0,0,1,1.007.775,2.473,2.473,0,0,1,.492,1.108,7.615,7.615,0,0,1,.08,1.274l-.016,5.435h-2.316v-5.49a1.8,1.8,0,0,0-.159-.807,1.129,1.129,0,0,0-1.111-.6,1.3,1.3,0,0,0-1.293.775,2.431,2.431,0,0,0-.182.989v5.135H968.21v-5.135a2.872,2.872,0,0,0-.159-1.115" transform="translate(-732.034 -141.189)" fill="#fff"/>
  </g>
</svg>
