<svg id="Group_12365" data-name="Group 12365" xmlns="http://www.w3.org/2000/svg" xmlns:xlink="http://www.w3.org/1999/xlink" width="212.904" height="61" viewBox="0 0 212.904 61">
  <defs>
    <clipPath id="clip-path">
      <rect id="Rectangle_2" data-name="Rectangle 2" width="212.904" height="61" fill="none"/>
    </clipPath>
  </defs>
  <g id="Group_1" data-name="Group 1" clip-path="url(#clip-path)">
    <path id="Path_1" data-name="Path 1" d="M4.509,63.884C4.167,73.308,9.459,78,14.879,84.56c9,12.663,5.934,17.411-2.309,26.228.257-7.221-.988-14.367-7.8-21.235-7-8.754-5.62-17.268-.265-25.669" transform="translate(0 -50.462)" fill="#e40e20" fill-rule="evenodd"/>
    <path id="Path_2" data-name="Path 2" d="M35.412,0c-.307,9.307,3.3,16.075,9.781,20.971,13.205,10,8.145,20,1.786,29.175,2.573-7.618-5.42-17.013-11.3-24.477C28.68,16.915,30.056,8.4,35.412,0" transform="translate(-24.41)" fill="#005587" fill-rule="evenodd"/>
    <path id="Path_3" data-name="Path 3" d="M34.778,225.845l-1.307-.07c.365-6.851-.856-12.195-3.733-16.337l1.075-.747c3.049,4.39,4.346,10,3.965,17.153" transform="translate(-23.49 -164.845)" fill="#005587"/>
    <path id="Path_4" data-name="Path 4" d="M65.227,17.9A25.143,25.143,0,0,1,59.509,1.371L60.6,1.4a24.066,24.066,0,0,0,5.482,15.815Z" transform="translate(-46.997 -1.083)" fill="#e40e20"/>
    <path id="Path_5" data-name="Path 5" d="M186.686,77.18v8.61h-3.915v-8.92a3.923,3.923,0,0,0-.4-1.91,2.027,2.027,0,0,0-1.991-1.022,2.741,2.741,0,0,0-2.307,1.016,4.648,4.648,0,0,0-.787,2.9v7.938h-3.821V66.027h3.821v7.009a4.7,4.7,0,0,1,1.931-1.783,5.459,5.459,0,0,1,2.307-.5,6.261,6.261,0,0,1,2.469.471,4.318,4.318,0,0,1,1.823,1.439,3.826,3.826,0,0,1,.74,1.689,20.829,20.829,0,0,1,.134,2.832" transform="translate(-137.016 -52.155)" fill="#005587"/>
    <path id="Path_6" data-name="Path 6" d="M259.938,99.189a4.866,4.866,0,0,1-1.359,2.65,6.658,6.658,0,0,1-5.274,2.139,7.436,7.436,0,0,1-4.938-1.8q-2.139-1.8-2.139-5.866a8.152,8.152,0,0,1,1.931-5.839,6.6,6.6,0,0,1,5.011-2.031,7.684,7.684,0,0,1,3.3.686,5.777,5.777,0,0,1,2.422,2.166,7.394,7.394,0,0,1,1.117,3.027,19.561,19.561,0,0,1,.121,2.906H250.09a3.644,3.644,0,0,0,1.386,3.094,3.263,3.263,0,0,0,1.91.552,2.749,2.749,0,0,0,1.924-.673,3.2,3.2,0,0,0,.713-1.009ZM256.144,94.7a3.338,3.338,0,0,0-.921-2.307,2.862,2.862,0,0,0-2.052-.787,2.6,2.6,0,0,0-2.065.834,4.163,4.163,0,0,0-.922,2.26Z" transform="translate(-194.496 -69.859)" fill="#005587"/>
    <path id="Path_7" data-name="Path 7" d="M330.186,92.52a3.18,3.18,0,0,0-3.108,1.507,5.86,5.86,0,0,0-.444,2.61v7.01h-3.861V88.982h3.659v2.556a8.107,8.107,0,0,1,1.547-2,4.212,4.212,0,0,1,2.8-.9c.072,0,.132,0,.182.007s.159.011.33.02v3.928q-.363-.04-.646-.054t-.457-.013" transform="translate(-254.958 -70.01)" fill="#005587"/>
    <path id="Path_8" data-name="Path 8" d="M384.156,85.791h-4.628l-3.511-6.269-1.588,1.655v4.615h-3.767V66.027h3.767V76.71l4.776-5.516h4.749l-5.126,5.61Z" transform="translate(-292.785 -52.155)" fill="#005587"/>
    <path id="Path_9" data-name="Path 9" d="M447.794,99.189a4.866,4.866,0,0,1-1.359,2.65,6.658,6.658,0,0,1-5.274,2.139,7.437,7.437,0,0,1-4.938-1.8q-2.139-1.8-2.139-5.866a8.152,8.152,0,0,1,1.931-5.839,6.6,6.6,0,0,1,5.011-2.031,7.684,7.684,0,0,1,3.3.686,5.778,5.778,0,0,1,2.422,2.166,7.4,7.4,0,0,1,1.117,3.027,19.573,19.573,0,0,1,.121,2.906H437.946a3.644,3.644,0,0,0,1.386,3.094,3.263,3.263,0,0,0,1.91.552,2.75,2.75,0,0,0,1.924-.673,3.2,3.2,0,0,0,.713-1.009ZM444,94.7a3.338,3.338,0,0,0-.922-2.307,2.862,2.862,0,0,0-2.052-.787,2.6,2.6,0,0,0-2.065.834,4.163,4.163,0,0,0-.922,2.26Z" transform="translate(-342.882 -69.859)" fill="#005587"/>
    <path id="Path_10" data-name="Path 10" d="M517.143,89.4a4.725,4.725,0,0,1,1.978,3.794h-3.834a2.272,2.272,0,0,0-.417-1.17,2.625,2.625,0,0,0-2.153-.78,3.094,3.094,0,0,0-1.783.39,1.123,1.123,0,0,0-.531.915,1,1,0,0,0,.565.955,24.419,24.419,0,0,0,4,1.063,7.34,7.34,0,0,1,3.431,1.628,3.7,3.7,0,0,1,1.13,2.758,4.456,4.456,0,0,1-1.621,3.559,7.616,7.616,0,0,1-5.011,1.379q-3.458,0-5.106-1.46a4.749,4.749,0,0,1-1.648-3.72h3.888a2.56,2.56,0,0,0,.525,1.453,3.545,3.545,0,0,0,2.637.767,4.017,4.017,0,0,0,1.8-.337,1.077,1.077,0,0,0,.666-1.009,1.089,1.089,0,0,0-.538-.982,21.914,21.914,0,0,0-4-1.157A8.32,8.32,0,0,1,507.6,95.9a3.354,3.354,0,0,1-1.022-2.637,4.573,4.573,0,0,1,1.594-3.491,6.4,6.4,0,0,1,4.487-1.46,8.306,8.306,0,0,1,4.48,1.09" transform="translate(-399.797 -69.757)" fill="#005587"/>
    <path id="Path_11" data-name="Path 11" d="M590.335,65.836v19.8h-3.727V83.608a5.408,5.408,0,0,1-1.87,1.9,5.25,5.25,0,0,1-2.61.592,5.449,5.449,0,0,1-4.325-2.079,7.982,7.982,0,0,1-1.756-5.335,9.182,9.182,0,0,1,1.729-5.906,5.624,5.624,0,0,1,4.621-2.153,4.733,4.733,0,0,1,2.368.585,4.661,4.661,0,0,1,1.682,1.621v-7ZM580,78.4a5.765,5.765,0,0,0,.807,3.242,2.687,2.687,0,0,0,2.422,1.224,2.831,2.831,0,0,0,2.476-1.211,5.349,5.349,0,0,0,.848-3.135,4.808,4.808,0,0,0-1.359-3.848,2.926,2.926,0,0,0-1.938-.7,2.693,2.693,0,0,0-2.469,1.271A5.891,5.891,0,0,0,580,78.4" transform="translate(-455.018 -52.004)" fill="#e40e20"/>
    <path id="Path_12" data-name="Path 12" d="M667.145,102.89q-.054.067-.269.4a2.7,2.7,0,0,1-.511.592,5.339,5.339,0,0,1-1.742,1.1,5.939,5.939,0,0,1-1.971.3q-3.256,0-4.386-2.341a8.959,8.959,0,0,1-.632-3.807V90.3h3.929v8.839a4.624,4.624,0,0,0,.3,1.884,2.048,2.048,0,0,0,2.058,1.116,2.691,2.691,0,0,0,2.691-1.587,5.749,5.749,0,0,0,.377-2.274V90.3h3.888v14.665h-3.727Z" transform="translate(-519.462 -71.325)" fill="#e40e20"/>
    <path id="Path_13" data-name="Path 13" d="M735.53,101.114,738.557,90.3h4.076L737.6,104.72a20.261,20.261,0,0,1-2.3,5.173q-.848,1-3.39,1-.512,0-.821-.007t-.928-.047v-3.067l.484.027a6.074,6.074,0,0,0,1.076-.041,1.934,1.934,0,0,0,.861-.309,2.074,2.074,0,0,0,.626-.955,2.022,2.022,0,0,0,.235-.888L728.063,90.3h4.265Z" transform="translate(-575.095 -71.325)" fill="#e40e20"/>
    <path id="Path_14" data-name="Path 14" d="M809.9,89.4a4.725,4.725,0,0,1,1.978,3.794h-3.834a2.27,2.27,0,0,0-.417-1.17,2.625,2.625,0,0,0-2.153-.78,3.093,3.093,0,0,0-1.783.39,1.123,1.123,0,0,0-.531.915,1,1,0,0,0,.565.955,24.421,24.421,0,0,0,4,1.063,7.339,7.339,0,0,1,3.431,1.628,3.7,3.7,0,0,1,1.13,2.758,4.456,4.456,0,0,1-1.621,3.559,7.617,7.617,0,0,1-5.011,1.379q-3.458,0-5.106-1.46a4.749,4.749,0,0,1-1.648-3.72h3.888a2.559,2.559,0,0,0,.525,1.453,3.545,3.545,0,0,0,2.637.767,4.015,4.015,0,0,0,1.8-.337,1.077,1.077,0,0,0,.666-1.009,1.089,1.089,0,0,0-.538-.982,21.921,21.921,0,0,0-4-1.157,8.321,8.321,0,0,1-3.511-1.547,3.354,3.354,0,0,1-1.022-2.637,4.573,4.573,0,0,1,1.594-3.491,6.4,6.4,0,0,1,4.487-1.46,8.306,8.306,0,0,1,4.48,1.09" transform="translate(-631.046 -69.757)" fill="#e40e20"/>
    <path id="Path_15" data-name="Path 15" d="M882.106,102.89q-.054.067-.269.4a2.7,2.7,0,0,1-.511.592,5.339,5.339,0,0,1-1.742,1.1,5.939,5.939,0,0,1-1.971.3q-3.256,0-4.386-2.341a8.958,8.958,0,0,1-.632-3.807V90.3h3.928v8.839a4.623,4.623,0,0,0,.3,1.884,2.048,2.048,0,0,0,2.058,1.116,2.691,2.691,0,0,0,2.691-1.587,5.749,5.749,0,0,0,.377-2.274V90.3h3.888v14.665h-3.727Z" transform="translate(-689.26 -71.325)" fill="#e40e20"/>
    <path id="Path_16" data-name="Path 16" d="M957.069,91.821a2.67,2.67,0,0,0-2.677,1.655,5.687,5.687,0,0,0-.377,2.233v7.938h-3.821V89.009h3.7v2.139a6.506,6.506,0,0,1,1.4-1.628,4.863,4.863,0,0,1,3-.888,5.661,5.661,0,0,1,3.72,1.191,4.841,4.841,0,0,1,1.446,3.949v9.875h-3.928v-8.92a4.07,4.07,0,0,0-.31-1.776,2.177,2.177,0,0,0-2.152-1.13" transform="translate(-750.556 -70.01)" fill="#e40e20"/>
    <rect id="Rectangle_1" data-name="Rectangle 1" width="2.031" height="1.997" transform="translate(183.338 44.916)" fill="#005587"/>
    <path id="Path_17" data-name="Path 17" d="M894.116,190.48h-1.957a1.693,1.693,0,0,0-.275-.737,1.152,1.152,0,0,0-1-.442,1.315,1.315,0,0,0-1.32.958,4.012,4.012,0,0,0-.188,1.354,3.687,3.687,0,0,0,.188,1.294,1.275,1.275,0,0,0,1.287.912,1.134,1.134,0,0,0,.952-.362,1.8,1.8,0,0,0,.342-.938H894.1a3.2,3.2,0,0,1-.63,1.649,3.063,3.063,0,0,1-2.661,1.253,3.113,3.113,0,0,1-2.594-1.046,4.231,4.231,0,0,1-.831-2.715,4.292,4.292,0,0,1,.918-2.929,3.2,3.2,0,0,1,2.534-1.046,3.814,3.814,0,0,1,2.249.617,2.868,2.868,0,0,1,1.036,2.178" transform="translate(-700.939 -148.252)" fill="#005587"/>
    <path id="Path_18" data-name="Path 18" d="M928.987,188.557a4.539,4.539,0,0,1,0,5.493,4.022,4.022,0,0,1-5.616,0,4.539,4.539,0,0,1,0-5.493,3.98,3.98,0,0,1,5.616,0m-2.815.456a1.526,1.526,0,0,0-1.29.593,3.4,3.4,0,0,0,0,3.388,1.691,1.691,0,0,0,2.577,0,3.422,3.422,0,0,0,0-3.388,1.518,1.518,0,0,0-1.287-.593" transform="translate(-728.637 -148.024)" fill="#005587"/>
    <path id="Path_19" data-name="Path 19" d="M967.292,189.921a.936.936,0,0,0-.945-.53,1.128,1.128,0,0,0-1.1.53,2.036,2.036,0,0,0-.154.9v4.4h-1.937v-7.293h1.857v1.066a3.067,3.067,0,0,1,.67-.811,2.652,2.652,0,0,1,2.795-.061,2.148,2.148,0,0,1,.63.878,2.425,2.425,0,0,1,.932-.945,2.843,2.843,0,0,1,1.314-.3,2.545,2.545,0,0,1,.952.188,2.125,2.125,0,0,1,.851.657,2.1,2.1,0,0,1,.416.939,6.474,6.474,0,0,1,.067,1.079l-.013,4.6h-1.957v-4.652a1.532,1.532,0,0,0-.134-.684.953.953,0,0,0-.938-.509,1.1,1.1,0,0,0-1.093.657,2.065,2.065,0,0,0-.154.838v4.35h-1.924v-4.35a2.441,2.441,0,0,0-.134-.945" transform="translate(-760.794 -148.302)" fill="#005587"/>
  </g>
</svg>